<svg width="25" height="25" viewBox="0 0 25 25" fill="none" xmlns="http://www.w3.org/2000/svg">
<path d="M24.17 19.5674L18.5806 14.4854C18.3164 14.2453 17.9692 14.1172 17.6124 14.1282C17.2555 14.1393 16.9169 14.2885 16.668 14.5445L13.3776 17.9284C12.5856 17.7772 10.9934 17.2808 9.35439 15.6459C7.71539 14.0055 7.21901 12.4092 7.07189 11.6227L10.453 8.3309C10.7093 8.0822 10.8588 7.74353 10.8699 7.38656C10.8809 7.02959 10.7526 6.68233 10.5121 6.41828L5.43151 0.830276C5.19095 0.565392 4.8566 0.40472 4.49947 0.382383C4.14235 0.360047 3.79059 0.477806 3.51889 0.710652L0.535138 3.26953C0.297416 3.50811 0.155527 3.82565 0.136388 4.1619C0.115763 4.50565 -0.277487 12.6484 6.03651 18.9652C11.5448 24.472 18.4445 24.8749 20.3448 24.8749C20.6225 24.8749 20.793 24.8667 20.8384 24.8639C21.1746 24.8451 21.492 24.7026 21.7294 24.4638L24.2869 21.4787C24.5207 21.2078 24.6393 20.8563 24.6174 20.4992C24.5956 20.1421 24.435 19.8077 24.17 19.5674Z" fill="#FF9900"/>
</svg>
